<?xml version="1.0" encoding="UTF-8" standalone="no"?>
<svg width="40px" height="49px" viewBox="0 0 40 49" version="1.1" xmlns="http://www.w3.org/2000/svg" xmlns:xlink="http://www.w3.org/1999/xlink">
    <!-- Generator: Sketch 40.1 (33804) - http://www.bohemiancoding.com/sketch -->
    <title>logo_shield</title>
    <desc>Created with Sketch.</desc>
    <defs></defs>
    <g id="Page-1" stroke="none" stroke-width="1" fill="none" fill-rule="evenodd">
        <g id="logo_shield">
            <g id="New_Header">
                <g id="Fill-144-+-Fill-145-+-Fill-16-Copy-9">
                    <g id="Group">
                        <g id="Fill-144-+-Fill-145">
                            <path d="M37.3186253,11.8139819 C37.3186253,5.89235359 32.5260628,1.09237719 26.6135808,1.09179902 C26.4421292,1.09179902 26.2718322,1.09700256 26.1026897,1.10509695 C26.0466937,1.10740964 25.9918523,1.112035 25.9364336,1.11550403 C25.8232871,1.12244208 25.7101406,1.13053648 25.5981487,1.14152173 C25.5317617,1.14730344 25.4653747,1.15481967 25.3989877,1.16291406 C25.2996959,1.17389931 25.2004041,1.18661908 25.1016895,1.20049518 C25.0306843,1.21032409 24.9596791,1.22073117 24.8892512,1.23229459 C24.7968867,1.24732704 24.7045222,1.26467217 24.612735,1.28201731 C24.539998,1.29589341 24.4666837,1.30861318 24.3945239,1.3242238 C24.3067776,1.34272527 24.2201859,1.3641176 24.1330169,1.38493176 C23.9748428,1.42251288 23.8178231,1.46356303 23.6625353,1.5080822 C23.6042302,1.52484916 23.5453479,1.53988161 23.4876201,1.55780492 C23.3906374,1.58729164 23.2953865,1.61966922 23.1995583,1.6520468 C23.1458715,1.67054828 23.0916073,1.68789341 23.0379205,1.70697306 C22.9403605,1.74166332 22.843955,1.77866627 22.7475496,1.81624739 C22.6990582,1.83474887 22.6511442,1.85382852 22.6032301,1.87290816 C22.5027837,1.91338014 22.4034919,1.95558663 22.3047773,1.99894946 C22.266677,2.01571642 22.2279993,2.03363972 22.189899,2.05098486 C22.0836798,2.09955123 21.9774606,2.14869577 21.8735506,2.200153 C21.4584877,2.40887276 21.0930706,2.61932704 20.7426629,2.85001731 C20.6277845,2.92517955 20.5209881,2.99918545 20.4153462,3.07492586 C20.2577493,3.18824739 20.1567256,3.26398781 20.0568565,3.34146273 C18.2286169,1.9561648 15.9564504,1.11955123 13.4943595,1.1201294 C9.57002316,1.12070757 6.13579594,3.23681377 4.27407417,6.39073707 C3.33137909,7.98706745 2.78873771,9.85456008 2.78873771,11.8423123 C2.78931499,13.355386 3.10393153,14.7944539 3.66908676,16.099386 C1.75252358,18.5201884 0.606049337,21.580448 0.605472059,24.9112916 C0.606049337,30.6137931 3.9629213,35.5334509 8.80686155,37.7917872 L9.32294815,38.0386663 C10.6224011,38.4763418 11.8479624,39.0776397 12.976541,39.815386 C13.0619782,39.879563 13.1474153,39.94374 13.2345843,40.0061825 C15.8000081,41.7383831 17.8314496,44.1996574 19.0466199,47.087622 C19.1384071,47.2986545 19.2677174,47.4339465 19.4166551,47.5397518 C19.5667474,47.6420881 19.7457036,47.7241884 19.9973969,47.7276574 C20.2485128,47.7241884 20.427469,47.6415099 20.5781386,47.5397518 C20.7264991,47.4339465 20.8558094,47.2986545 20.9475966,47.0887784 C22.6453714,43.0577695 25.9312381,39.8587489 30.0189441,38.2820763 L30.504435,38.0947489 C35.7068649,35.9803772 39.3771989,30.8745483 39.3789307,24.9112916 C39.3783534,21.6220763 38.2601658,18.5959288 36.3863212,16.1890026 C36.9843813,14.8528492 37.3186253,13.3733093 37.3186253,11.8139819 Z" id="Fill-144"></path>
                            <path d="M36.8087156,16.1699229 C37.4235167,14.7961884 37.7675744,13.2744421 37.7675744,11.6711736 C37.7675744,5.58187571 32.8393516,0.646607276 26.759459,0.646029105 C26.5833892,0.646029105 26.4084739,0.651232645 26.2341359,0.65932704 C26.1769854,0.661639725 26.1204121,0.666843265 26.0632616,0.66973412 C25.9472287,0.677250344 25.8306186,0.685922911 25.7151629,0.696908161 C25.6470441,0.703268043 25.5789253,0.710784267 25.5108065,0.718878663 C25.4086283,0.730442085 25.3064501,0.743161849 25.2048491,0.757616126 C25.1321121,0.768023206 25.0593751,0.778430285 24.986638,0.789993707 C24.8913871,0.806182498 24.7967135,0.822949459 24.7026172,0.840872763 C24.6269938,0.85532704 24.5519476,0.869203147 24.4774788,0.884813766 C24.3874234,0.903893412 24.2979453,0.925285742 24.2090445,0.946678073 C24.0462521,0.985415536 23.8851915,1.02762203 23.7247082,1.07387571 C23.6652485,1.09122085 23.6046343,1.10683147 23.5451747,1.12533294 C23.4453056,1.15539784 23.3477456,1.18893176 23.249031,1.22188751 C23.1936124,1.24096716 23.1381937,1.25889046 23.082775,1.27854828 C22.9823286,1.31439489 22.8830368,1.35197601 22.7837449,1.39071347 C22.734099,1.40979312 22.6850304,1.42887276 22.6359617,1.44910875 C22.532629,1.49073707 22.4304507,1.5340999 22.3294271,1.57861908 C22.2895949,1.59596421 22.25034,1.61388751 22.2110851,1.63238899 C22.1014022,1.6821117 21.992874,1.73241259 21.8855003,1.78560433 C21.8722229,1.79196421 21.8595227,1.79890226 21.8468226,1.80526214 C21.4583145,1.99952763 21.0830837,2.21634179 20.7228622,2.45339194 C20.7205531,2.45454828 20.7188213,2.45570462 20.7165122,2.45743913 C20.6050975,2.53086686 20.4948374,2.60718545 20.3863091,2.68523854 C20.3672589,2.69853648 20.3482088,2.71183441 20.3297359,2.72513235 C20.224094,2.80145093 20.1201839,2.87950403 20.0174284,2.95929164 C20.0105011,2.96449518 20.0029965,2.96969872 19.9960691,2.97490226 C18.1372338,1.53467807 15.8009894,0.674359489 13.2696251,0.67493766 C9.23445142,0.675515831 5.70266421,2.85175182 3.78841014,6.09471347 C2.81858298,7.7361412 2.26150965,9.65624739 2.26150965,11.7000822 C2.26150965,13.2559406 2.58536264,14.7360586 3.16610438,16.0779937 C1.19585434,18.5675984 0.0164752475,21.7140055 0.0158979695,25.1385129 C0.0170525256,31.0029023 3.46859809,36.0613211 8.44935325,38.3832562 L8.97987179,38.6370734 C10.3168478,39.0874686 11.5770458,39.7055335 12.7367974,40.4646722 C12.825121,40.5300055 12.9128673,40.5964952 13.0023454,40.6606722 L13.0115818,40.6473742 C15.6405061,42.4414391 17.7290982,44.9726722 18.9789052,47.9421589 C19.0730015,48.1589731 19.2057755,48.2983123 19.3587542,48.4070085 C19.5134647,48.5128138 19.6976164,48.5966486 19.956237,48.6006958 C20.2148575,48.5966486 20.3990092,48.5116574 20.5531425,48.4070085 C20.7061212,48.2983123 20.8388951,48.1589731 20.9329914,47.9433152 C22.6786803,43.7984067 26.0580661,40.5091913 30.2612277,38.8874214 L30.759996,38.6954686 L30.759996,38.683327 C36.1102091,36.5209672 39.8844531,31.2705955 39.8856077,25.1385129 C39.8856077,21.756212 38.7356697,18.6450734 36.8087156,16.1699229 L36.8087156,16.1699229 L36.8087156,16.1699229 Z M29.3595194,7.10130934 C29.1135989,7.10130934 28.8671012,7.12790521 28.6246444,7.17936244 C28.4145152,7.22388161 28.4023923,7.19728574 28.5998214,7.11171642 C29.2186635,6.84344503 29.8998517,6.69369872 30.616831,6.69254238 C33.4310616,6.69716775 35.7078463,8.9780527 35.7130418,11.7960586 C35.71131,12.5627135 35.5392811,13.2865837 35.2356328,13.9376043 C35.1444229,14.1330262 34.9285209,14.1677164 34.7645739,14.027799 C34.1682457,13.5178521 33.5297761,13.0564716 32.8555154,12.6471265 C32.6713637,12.5355394 32.6061312,12.2973329 32.6892593,12.0984421 C32.8745655,11.6561412 32.9698164,11.1860881 32.9686619,10.716035 C32.9703937,9.79327394 32.6153677,8.86357483 31.912243,8.15994061 C31.2091183,7.45572822 30.2802779,7.10073117 29.3595194,7.10130934 L29.3595194,7.10130934 L29.3595194,7.10130934 Z M20.7944447,35.432271 L19.0181601,35.432271 C18.5390193,35.432271 18.1505112,35.8213801 18.1505112,36.3012621 L18.1505112,37.0580881 C15.6866884,36.3053093 13.8953945,34.0151736 13.8907763,31.3006604 L13.8907763,27.3349849 C13.8907763,27.011209 14.1528605,26.7492975 14.4749817,26.7492975 L15.9297224,26.7492975 L15.9297224,27.1129672 C15.9302997,29.3585837 17.7475711,31.1792444 19.9914509,31.1798226 C22.2341762,31.1792444 24.0514476,29.3585837 24.0520248,27.1129672 L24.0520248,26.7492975 L25.3387776,26.7492975 C25.6614761,26.7492975 25.9235603,27.011209 25.9235603,27.3349849 L25.9235603,30.7907135 L25.9131693,31.2833152 L25.9131693,31.3006604 C25.9079738,34.0117046 24.1212982,36.3001058 21.6620936,37.0557754 L21.6620936,36.3012621 C21.6620936,35.8213801 21.2735855,35.432271 20.7944447,35.432271 L20.7944447,35.432271 L20.7944447,35.432271 Z M22.4933741,26.7492975 L22.4933741,27.1129672 C22.4904877,28.4965306 21.3728773,29.6158698 19.9914509,29.6181825 C18.6094472,29.6158698 17.4912596,28.4953742 17.4883732,27.1129672 L17.4883732,26.7492975 L22.4933741,26.7492975 L22.4933741,26.7492975 Z M21.9022413,22.7587607 L23.3789186,21.2803772 C23.454542,21.2040586 23.6029025,21.1537577 23.7073898,21.1797754 C24.6015936,21.4017931 25.2643088,22.20892 25.2654633,23.1733093 C25.2643088,24.1076338 24.6402712,24.8939465 23.7870542,25.1419819 C23.6837214,25.1720468 23.5757704,25.1876574 23.5492156,25.1876574 L23.5007243,25.1876574 L21.901664,23.5867017 C21.6736392,23.3577459 21.6736392,22.9871382 21.9022413,22.7587607 L21.9022413,22.7587607 L21.9022413,22.7587607 Z M18.2890579,23.5867017 L16.6905749,25.1876574 L16.6432381,25.1876574 C16.6166833,25.1876574 16.5093096,25.172625 16.4053996,25.1425601 C15.5516053,24.8945247 14.9269904,24.108212 14.9258359,23.1727312 C14.9269904,22.20892 15.5897057,21.4012149 16.4839094,21.1803536 C16.5883967,21.1543359 16.7367572,21.2040586 16.8123806,21.2803772 L18.2890579,22.7593388 C18.5170827,22.9877164 18.5170827,23.3583241 18.2890579,23.5867017 L18.2890579,23.5867017 L18.2890579,23.5867017 Z M25.2365994,19.5643654 L24.7482222,19.5643654 C24.478056,19.5643654 24.2592677,19.21515 24.2592677,18.7838344 L24.2592677,16.9787843 L25.5171566,16.9787843 C25.5275476,16.9787843 25.5379386,16.9799406 25.5489069,16.9799406 C25.5592979,16.9799406 25.5696889,16.9787843 25.5806572,16.9787843 C26.8656781,16.9631736 27.9434563,16.1016987 28.287514,14.9251206 C28.3781467,14.6152208 28.1310717,14.3504185 27.8083732,14.3504185 L23.8736459,14.3504185 C23.228249,14.3504185 22.702926,14.8748197 22.7023487,15.5212149 C22.7017714,16.312153 22.7011942,17.376566 22.7011942,18.3079996 C22.7011942,18.6311972 22.4391099,18.8936869 22.1164115,18.8936869 L17.8786132,18.8936869 C17.5559148,18.8936869 17.2944078,18.6311972 17.2944078,18.3079996 C17.2938305,17.380035 17.2932532,16.3190911 17.292676,15.5304657 C17.2920987,14.8840704 16.7661984,14.3550439 16.1208015,14.3538875 C14.9229495,14.3515748 13.1097191,14.3509967 12.1866515,14.3504185 C11.863953,14.3504185 11.616878,14.6152208 11.7080879,14.9251206 C12.0521457,16.1016987 13.1293465,16.9631736 14.4120584,16.9782061 C14.4253358,16.9787843 14.4357268,16.9799406 14.4466951,16.9799406 C14.4570861,16.9799406 14.4674771,16.9787843 14.4784454,16.9787843 L15.735757,16.9787843 L15.735757,18.7838344 C15.735757,19.21515 15.4765592,19.5643654 15.1573244,19.5643654 L14.5788918,19.5643654 C11.9563175,19.55974 9.83539789,17.4349613 9.83020238,14.80833 C9.83482061,12.3620881 11.6751831,10.3517872 14.0466414,10.084094 L15.3484034,10.084094 C15.6035603,10.0788905 16.0792375,10.1962592 16.5387508,10.4136515 C17.0011505,10.6269967 17.4606639,10.9345837 17.7573848,11.2317636 L19.3489404,12.8124834 C19.534824,12.9986545 19.7876718,13.0957872 20.0359013,13.095209 C20.2852855,13.095209 20.5352469,12.9980763 20.7228622,12.8107489 L22.3161497,11.216153 C22.5915113,10.93574 23.0804658,10.624684 23.6017479,10.408448 C24.1207209,10.188743 24.6812579,10.0621235 25.0628387,10.0650144 L25.5558342,10.0650144 C28.0288934,10.2332621 29.9806706,12.2898167 29.9852888,14.80833 C29.9806706,17.4349613 27.8585964,19.55974 25.2365994,19.5643654 L25.2365994,19.5643654 L25.2365994,19.5643654 Z M9.78921564,19.4759052 C9.90005303,19.2914686 10.1142232,19.272389 10.2712428,19.4198226 C10.8912395,20.0014627 11.6290008,20.4587961 12.445272,20.752507 C12.6478966,20.8253565 12.6565558,20.9444598 12.4643222,21.0404362 C10.4686719,22.0348905 8.84594328,23.6647548 7.85879778,25.6663831 C7.76296963,25.8594922 7.7058191,25.845038 7.72833294,25.6311147 C7.96039872,23.3947489 8.68430542,21.3087076 9.78921564,19.4759052 L9.78921564,19.4759052 L9.78921564,19.4759052 Z M8.92618493,11.6862061 C8.80091559,11.7388197 8.60464105,11.635327 8.5295949,11.4329672 C8.44415774,11.2040114 8.40201645,10.9617577 8.40143917,10.7189259 C8.40201645,10.188743 8.59944554,9.66665447 9.00123108,9.26424739 C9.40474845,8.86126214 9.92487599,8.66352763 10.4519309,8.66237129 C10.757311,8.66294946 11.0598047,8.72943913 11.3392072,8.864153 C11.5331727,8.95723854 11.6722967,9.09657778 11.6722967,9.13531524 C11.6722967,9.17289636 11.5164316,9.28390521 11.3322799,9.39491406 C10.5483363,9.86727984 9.87696191,10.5067371 9.3637617,11.2629849 C9.24253331,11.4410616 9.05203155,11.6330144 8.92618493,11.6862061 L8.92618493,11.6862061 L8.92618493,11.6862061 Z M27.2853593,20.7825719 C28.1218352,20.4946427 28.879224,20.0367312 29.5148072,19.4493093 C29.6729814,19.3030321 29.8877288,19.3226899 29.9991435,19.5071265 C31.1121356,21.3457105 31.8412378,23.4404244 32.0750354,25.6866191 C32.096972,25.9011206 32.0392442,25.9155748 31.9439933,25.7218875 C30.9453022,23.6965542 29.2948642,22.0528138 27.2668864,21.0618285 C27.0734982,20.9670085 27.0821574,20.8525306 27.2853593,20.7825719 L27.2853593,20.7825719 L27.2853593,20.7825719 Z M28.1397308,9.13358073 C28.1397308,9.09657778 28.2782776,8.95781672 28.472243,8.864153 C28.7510683,8.72943913 29.0541393,8.66294946 29.3595194,8.66237129 C29.8877288,8.66294946 30.4078564,8.86184031 30.8107964,9.26424739 C31.2114274,9.66665447 31.4100111,10.1875866 31.4105884,10.716035 C31.4100111,10.9478816 31.3713334,11.1779937 31.2939782,11.3971206 C31.2223957,11.6006368 31.0203484,11.7023949 30.8835335,11.6457341 C30.7467186,11.5884952 30.5452485,11.3942297 30.4222883,11.2173093 C29.9119745,10.479563 29.2498365,9.85513825 28.4797476,9.39144503 C28.2950186,9.28043618 28.1397308,9.17116185 28.1397308,9.13358073 L28.1397308,9.13358073 L28.1397308,9.13358073 Z M20.3834227,4.68744503 L20.512733,4.57354533 C21.1390797,4.02081377 21.8358543,3.55076067 22.5886249,3.17841849 C22.6954214,3.12580492 22.8022178,3.07666037 22.9090143,3.02867217 C22.9373009,3.01595241 22.9650102,3.00265447 22.9938741,2.99051288 C23.0873932,2.94946273 23.1826441,2.91130344 23.2773177,2.87314415 C23.3206135,2.85637719 23.3639094,2.83845388 23.4077825,2.82168692 C23.4943742,2.78873117 23.5826978,2.75750993 23.670444,2.72686686 C23.7241309,2.70836539 23.7778178,2.68986391 23.8315046,2.67251878 C23.9140554,2.64534474 23.9971834,2.61990521 24.0803115,2.59562203 C24.1420802,2.57712055 24.203849,2.55919725 24.266195,2.54243029 C24.3447048,2.52103795 24.4232146,2.5002238 24.5023017,2.48114415 C24.5715751,2.46379902 24.642003,2.4481884 24.7118537,2.43257778 C24.7863225,2.41581082 24.8607914,2.39962203 24.9364148,2.38458958 C25.0131928,2.3701353 25.0899708,2.35683736 25.1673261,2.34353943 C25.2383313,2.33139784 25.3087592,2.31925624 25.3803417,2.30884916 C25.4652015,2.2961294 25.5506387,2.28630049 25.6360759,2.27589341 C25.7018856,2.26837719 25.7665407,2.25970462 25.8323504,2.25334474 C25.9310649,2.24351583 26.0303568,2.23715595 26.1302259,2.2302179 C26.18449,2.22674887 26.2381769,2.22154533 26.292441,2.21865447 C26.4477288,2.21171642 26.6030166,2.20709105 26.759459,2.20709105 C29.3716422,2.20766922 31.7292458,3.26514415 33.4408753,4.97884326 C33.8184152,5.35696716 34.1624729,5.76746863 34.4713167,6.20456598 C34.5954314,6.38090816 34.5527129,6.41964562 34.3749112,6.29765152 C33.3057922,5.56279607 32.0121121,5.1320586 30.616831,5.13148043 C28.2736593,5.1320586 26.2139312,6.34563972 25.0287793,8.17902026 C24.9121692,8.35940964 24.652394,8.52187571 24.4393784,8.55425329 C23.9579285,8.62652468 23.4712831,8.77338014 23.0008015,8.9682238 C22.3282725,9.25268397 21.6978849,9.63080787 21.2129713,10.1124244 L20.3095311,11.0172621 C20.1571297,11.1698993 19.9100547,11.1704775 19.7576533,11.0184185 L18.8547904,10.1222533 C18.590397,9.86149813 18.2879033,9.62733884 17.9657822,9.42150993 C17.7845169,9.30529754 17.6754113,9.05263677 17.7400665,8.84680787 C18.2001571,7.36958073 19.0106555,6.04845978 20.0780426,4.97884326 C20.1773345,4.87939784 20.2795127,4.78284326 20.3834227,4.68744503 L20.3834227,4.68744503 L20.3834227,4.68744503 Z M18.4980326,3.81903206 C18.6769888,3.93871347 18.6960389,4.16709105 18.552874,4.32782262 C17.5466783,5.45467807 16.7702393,6.79025329 16.2928303,8.26112055 C16.2264434,8.46637129 16.0099641,8.5900999 15.7969485,8.55887866 C15.6474335,8.53690816 15.4979184,8.5241884 15.3484034,8.52303206 L15.2248659,8.52303206 C15.1567471,8.52303206 15.0170458,8.36981672 14.9010129,8.18769282 C13.7193247,6.33754533 11.6503601,5.11066627 9.29333378,5.1100881 C8.03313576,5.11066627 6.85491123,5.4621943 5.85044739,6.07158663 C5.66687297,6.18375182 5.62299983,6.14038899 5.7528874,5.96867217 C7.48010337,3.70050698 10.2013922,2.23599961 13.2696251,2.23599961 C15.2052385,2.23657778 16.999996,2.81937424 18.4980326,3.81903206 L18.4980326,3.81903206 L18.4980326,3.81903206 Z M11.6497828,7.25510285 C11.8402846,7.35512645 11.8298936,7.37247158 11.627269,7.30193471 C11.2462655,7.16895536 10.8490982,7.10073117 10.4519309,7.10130934 C9.53059507,7.100153 8.60233193,7.45572822 7.89978453,8.16051878 C7.19492801,8.86530934 6.84163383,9.7961648 6.84278839,10.7189259 C6.84163383,11.3294745 7.00153986,11.9417577 7.3109609,12.4910203 C6.54375835,12.9350557 5.82042893,13.4467371 5.14963182,14.0191265 C4.98568485,14.1590439 4.76862829,14.1243536 4.67741836,13.9295099 C4.37088371,13.2750203 4.19827756,12.5459465 4.19712301,11.7752444 C4.20231851,8.95723854 6.47910321,6.67635359 9.29333378,6.67115005 C10.1448189,6.67288456 10.9455036,6.88449518 11.6497828,7.25510285 L11.6497828,7.25510285 L11.6497828,7.25510285 Z M8.03602215,13.8751618 C8.22132841,13.7664657 8.3425568,13.8549259 8.31715657,14.0688492 C8.28771539,14.3111029 8.27212888,14.5574037 8.27212888,14.80833 C8.27212888,15.7495925 8.47821715,16.6417105 8.84709784,17.4436338 C8.93715321,17.6396338 8.92098943,17.9362356 8.80264742,18.1160468 C7.08697701,20.7230203 6.0871314,23.8486132 6.0871314,27.2020055 C6.0871314,30.7623831 7.21397818,34.06374 9.1270777,36.7632208 C9.25176976,36.9389849 9.19635107,37.0089436 9.00238564,36.915858 C4.61103138,34.8188315 1.57397147,30.3351147 1.57454875,25.1385129 C1.57339419,20.3327548 4.17230005,16.136389 8.03602215,13.8751618 L8.03602215,13.8751618 L8.03602215,13.8751618 Z M27.2807411,38.3208138 C26.8414325,38.7226427 26.3778782,39.0984539 25.8929646,39.4459347 C23.4874469,41.1260999 21.5010331,43.3665129 20.132884,45.9856279 C20.0330149,46.1770026 19.8788817,46.1764244 19.7795899,45.9856279 C18.3508266,43.2468315 16.2483799,40.9196928 13.6898835,39.2227607 C13.2852116,38.9221117 12.8932398,38.6052739 12.5214727,38.2658875 C11.8114207,37.6166014 11.1671784,36.8979347 10.5927867,36.1237636 C9.29737473,34.2915394 8.36622521,32.3685424 8.36853432,30.1801648 C8.36622521,26.8013329 10.3053022,23.875209 13.1264601,22.4540645 C13.3186937,22.3575099 13.4329948,22.4563772 13.4023991,22.6697223 C13.3787307,22.8339229 13.3666078,23.0015925 13.3666078,23.1727312 C13.3666078,23.7798108 13.5161228,24.3510439 13.7799389,24.8528964 C13.879808,25.0436928 13.8723034,25.1876574 13.7401067,25.1876574 L13.5005363,25.1876574 C12.8551395,25.1876574 12.3315482,25.7120586 12.3315482,26.3584539 L12.3315482,31.3006604 C12.3321255,34.8841648 14.8144212,37.8842946 18.1505112,38.6758108 L18.1505112,39.1637872 C18.1505112,39.6436692 18.5390193,40.0327784 19.0181601,40.0327784 L20.7944447,40.0327784 C21.2735855,40.0327784 21.6620936,39.6436692 21.6620936,39.1637872 L21.6620936,38.6734981 C24.9883699,37.8796692 27.4631609,34.8899465 27.4718201,31.3174273 L27.4816338,30.8271382 L27.4816338,26.3584539 C27.4816338,25.7120586 26.9586199,25.1876574 26.3126457,25.1876574 L26.2618453,25.1876574 C26.2341359,25.1876574 26.3103366,25.0436928 26.410783,24.8528964 C26.6745991,24.3510439 26.8235368,23.7798108 26.8235368,23.1733093 C26.8235368,23.0692385 26.8194959,22.9663241 26.8102594,22.8651441 C26.7952502,22.6951618 26.9257151,22.6390793 27.1121759,22.7466191 C29.6943407,24.240035 31.4354113,27.0343359 31.4342568,30.2356692 C31.4365659,32.4234686 30.5048391,34.3464657 29.2100044,36.1786899 C28.6356127,36.952861 27.9907931,37.6715276 27.2807411,38.3208138 L27.2807411,38.3208138 L27.2807411,38.3208138 Z M30.6878362,36.7990675 C32.5928538,34.1030557 33.7145051,30.8092149 33.7145051,27.2569318 C33.7145051,23.8977577 32.7117731,20.7681176 30.9920618,18.1588315 C30.8737198,17.9790203 30.8581332,17.6829967 30.9499205,17.4875748 C31.330924,16.6746663 31.5439396,15.7663595 31.5439396,14.80833 C31.5439396,14.5394804 31.5266212,14.2752562 31.4937164,14.0156574 C31.466007,13.8017341 31.5866582,13.7115394 31.773119,13.8190793 C32.7775828,14.3955158 33.6983413,15.1014627 34.5123034,15.9161058 C36.8704843,18.2790911 38.3263796,21.5341943 38.3263796,25.1385129 C38.3281114,30.3680704 35.2506421,34.8766486 30.8148374,36.9551736 C30.6197174,37.0465247 30.5637214,36.9754096 30.6878362,36.7990675 L30.6878362,36.7990675 L30.6878362,36.7990675 Z" id="Fill-145" fill="#1A1918"></path>
                        </g>
                    </g>
                </g>
            </g>
        </g>
    </g>
</svg>