<?xml version="1.0" encoding="UTF-8" standalone="no"?>
<svg width="66px" height="38px" viewBox="0 0 66 38" version="1.1" xmlns="http://www.w3.org/2000/svg" xmlns:xlink="http://www.w3.org/1999/xlink">
    <!-- Generator: Sketch 40.1 (33804) - http://www.bohemiancoding.com/sketch -->
    <title>noun_70916_cc</title>
    <desc>Created with Sketch.</desc>
    <defs></defs>
    <g id="Page-1" stroke="none" stroke-width="1" fill="none" fill-rule="evenodd">
        <g id="noun_70916_cc" fill="#000000">
            <path d="M64,4 C65.104,4 66,3.104 66,2 C66,0.896 65.104,0 64,0 L54.0986328,0 L2,0 C0.896,0 0,0.896 0,2 C0,3.104 0.896,4 2,4 L64,4 Z" id="Shape"></path>
            <path d="M2,21 L64,21 C65.104,21 66,20.104 66,19 C66,17.896 65.104,17 64,17 L2,17 C0.896,17 0,17.896 0,19 C0,20.104 0.896,21 2,21 L2,21 Z" id="Shape"></path>
            <path d="M2,38 L64,38 C65.104,38 66,37.104 66,36 C66,34.896 65.104,34 64,34 L2,34 C0.896,34 0,34.896 0,36 C0,37.104 0.896,38 2,38 L2,38 Z" id="Shape"></path>
        </g>
    </g>
</svg>