<?xml version="1.0" encoding="UTF-8" standalone="no"?>
<svg width="90px" height="90px" viewBox="0 0 90 90" version="1.1" xmlns="http://www.w3.org/2000/svg" xmlns:xlink="http://www.w3.org/1999/xlink">
    <!-- Generator: Sketch 40.1 (33804) - http://www.bohemiancoding.com/sketch -->
    <title>noun_149007_cc</title>
    <desc>Created with Sketch.</desc>
    <defs></defs>
    <g id="Page-1" stroke="none" stroke-width="1" fill="none" fill-rule="evenodd">
        <g id="noun_149007_cc" transform="translate(-1.000000, -1.000000)" fill="#404040">
            <g id="Group">
                <path d="M84.8,89.936 L2.063,7.2 C0.644,5.783 0.644,3.481 2.063,2.064 C3.482,0.645 5.781,0.645 7.2,2.064 L89.937,84.8 C91.356,86.217 91.356,88.519 89.937,89.936 C89.227,90.646 88.297,91 87.368,91 C86.439,91 85.509,90.645 84.8,89.936 Z" id="Shape"></path>
                <path d="M4.632,91 C3.703,91 2.773,90.645 2.064,89.936 C0.645,88.519 0.645,86.217 2.064,84.8 L84.8,2.063 C86.219,0.644 88.518,0.644 89.937,2.063 C91.356,3.48 91.356,5.782 89.937,7.199 L7.2,89.936 C6.491,90.646 5.561,91 4.632,91 L4.632,91 Z" id="Shape"></path>
            </g>
        </g>
    </g>
</svg>