<?xml version="1.0" encoding="UTF-8" standalone="no"?>
<svg width="94px" height="60px" viewBox="0 0 94 60" version="1.1" xmlns="http://www.w3.org/2000/svg" xmlns:xlink="http://www.w3.org/1999/xlink">
    <!-- Generator: Sketch 41.2 (35397) - http://www.bohemiancoding.com/sketch -->
    <title>vay_icon_onlinetransactions-d86263abf13fd4e41e04a2ef0c165f72</title>
    <desc>Created with Sketch.</desc>
    <defs></defs>
    <g id="Page-1" stroke="none" stroke-width="1" fill="none" fill-rule="evenodd">
        <g id="vay_icon_onlinetransactions-d86263abf13fd4e41e04a2ef0c165f72" fill="#000000">
            <path d="M91.4314581,15.304186 L78.0275545,15.304186 L78.0275545,15.304186 L78.0275545,15.304186 L74.5524684,15.304186 L85.9706085,4.00744186 C86.7152698,3.27069767 86.7152698,2.0427907 85.9706085,1.30604651 C85.2259472,0.569302326 83.984845,0.569302326 83.2401837,1.30604651 L69.0916188,15.0586047 L2.81676234,15.0586047 C1.8238806,15.0586047 0.830998852,15.7953488 0.830998852,17.0232558 L0.830998852,57.2986047 C0.830998852,58.2809302 1.57566016,59.2632558 2.81676234,59.2632558 L16.2206659,59.2632558 L16.2206659,59.2632558 L16.2206659,59.2632558 L78.0275545,59.2632558 L78.0275545,59.2632558 L78.0275545,59.2632558 L91.4314581,59.2632558 C92.4243398,59.2632558 93.4172216,58.5265116 93.4172216,57.2986047 L93.4172216,17.0232558 C93.1690011,16.0409302 92.4243398,15.304186 91.4314581,15.304186 Z M89.4456946,28.32 C84.4812859,27.5832558 80.7579793,23.6539535 80.013318,18.987907 L89.4456946,18.987907 L89.4456946,28.32 Z M58.4181401,36.424186 C58.4181401,42.3181395 53.4537313,47.2297674 47.4964409,47.2297674 C41.5391504,47.2297674 36.5747417,42.3181395 36.5747417,36.424186 C36.5747417,35.1962791 36.8229621,33.9683721 37.319403,32.7404651 L45.7588978,41.0902326 C46.0071183,41.335814 46.5035591,41.5813953 47,41.5813953 C47.4964409,41.5813953 47.9928817,41.335814 48.2411022,41.0902326 L57.4252583,32.0037209 C57.9216992,33.2316279 58.4181401,34.9506977 58.4181401,36.424186 Z M46.7517796,37.1609302 L39.056946,29.547907 C41.0427095,27.092093 44.0213548,25.6186047 47.4964409,25.6186047 C50.4750861,25.6186047 53.4537313,26.8465116 55.4394948,29.0567442 L46.7517796,37.1609302 Z M47.4964409,21.9348837 C43.028473,21.9348837 39.056946,23.8995349 36.5747417,26.8465116 L35.3336395,25.6186047 C34.5889782,24.8818605 33.347876,24.8818605 32.6032147,25.6186047 C31.8585534,26.3553488 31.8585534,27.5832558 32.6032147,28.32 L34.3407577,30.0390698 C33.347876,32.0037209 32.8514351,34.2139535 32.8514351,36.424186 C32.8514351,44.5283721 39.5533869,50.9134884 47.4964409,50.9134884 C55.4394948,50.9134884 62.1414466,44.2827907 62.1414466,36.424186 C62.1414466,33.7227907 61.3967853,31.5125581 60.1556831,29.3023256 L70.8291619,18.987907 L76.2900115,18.987907 C77.0346728,25.864186 82.7437428,31.2669767 89.4456946,32.0037209 L89.4456946,42.3181395 C82.4955224,43.0548837 77.0346728,48.7032558 76.2900115,55.3339535 L17.958209,55.3339535 C17.2135476,48.4576744 11.5044776,43.0548837 4.80252583,42.3181395 L4.80252583,32.0037209 C11.752698,31.2669767 17.2135476,25.6186047 17.958209,18.987907 L65.6165327,18.987907 L58.1699196,26.3553488 C55.1912744,23.6539535 51.4679679,21.9348837 47.4964409,21.9348837 Z M13.986682,18.987907 C13.2420207,23.8995349 9.27049369,27.5832558 4.5543054,28.32 L4.5543054,18.987907 L13.986682,18.987907 Z M4.5543054,46.2474419 C9.51871412,46.984186 13.2420207,50.9134884 13.986682,55.5795349 L4.5543054,55.5795349 L4.5543054,46.2474419 L4.5543054,46.2474419 Z M80.013318,55.5795349 C80.7579793,50.667907 84.7295063,46.984186 89.4456946,46.2474419 L89.4456946,55.5795349 L80.013318,55.5795349 Z" id="Shape"></path>
        </g>
    </g>
</svg>