<?xml version="1.0" encoding="UTF-8" standalone="no"?>
<svg width="69px" height="65px" viewBox="0 0 69 65" version="1.1" xmlns="http://www.w3.org/2000/svg" xmlns:xlink="http://www.w3.org/1999/xlink">
    <!-- Generator: Sketch 41.2 (35397) - http://www.bohemiancoding.com/sketch -->
    <title>vay_icon_incentives-e47434ef89b60697c0e82da8afff46ec</title>
    <desc>Created with Sketch.</desc>
    <defs></defs>
    <g id="Page-1" stroke="none" stroke-width="1" fill="none" fill-rule="evenodd">
        <g id="vay_icon_incentives-e47434ef89b60697c0e82da8afff46ec" fill="#000000">
            <g id="Group">
                <path d="M62.7088235,53.0060606 L11.9735294,53.0060606 L11.9735294,2.24848485 C11.9735294,1.43636364 11.3647059,0.624242424 10.35,0.624242424 L2.02941176,0.624242424 C1.21764706,0.624242424 0.405882353,1.23333333 0.405882353,2.24848485 L0.405882353,62.7515152 C0.405882353,63.5636364 1.01470588,64.3757576 2.02941176,64.3757576 L62.5058824,64.3757576 C63.3176471,64.3757576 64.1294118,63.7666667 64.1294118,62.7515152 L64.1294118,54.4272727 C64.1294118,53.6151515 63.5205882,53.0060606 62.7088235,53.0060606 Z M61.0852941,61.330303 L3.65294118,61.330303 L3.65294118,3.87272727 L8.92941176,3.87272727 L8.92941176,54.630303 C8.92941176,55.4424242 9.53823529,56.2545455 10.5529412,56.2545455 L61.2882353,56.2545455 L61.2882353,61.330303 L61.0852941,61.330303 Z" id="Shape"></path>
                <path d="M68.5941176,15.2424242 C68.5941176,15.0393939 68.5941176,14.8363636 68.3911765,14.6333333 C68.1882353,14.2272727 67.9852941,14.0242424 67.5794118,13.8212121 L67.1735294,13.8212121 C67.1735294,13.8212121 67.1735294,13.8212121 66.9705882,13.8212121 L56.8235294,13.8212121 C56.0117647,13.8212121 55.2,14.430303 55.2,15.4454545 C55.2,16.4606061 55.8088235,17.069697 56.8235294,17.069697 L63.3176471,17.069697 L46.2705882,34.1242424 L38.5588235,26.0030303 C37.95,25.3939394 36.9352941,25.3939394 36.3264706,26.0030303 L16.8441176,45.4939394 C16.2352941,46.1030303 16.2352941,47.1181818 16.8441176,47.7272727 C17.0470588,47.930303 17.4529412,48.1333333 17.8588235,48.1333333 C18.2647059,48.1333333 18.6705882,47.930303 18.8735294,47.7272727 L37.3411765,29.2515152 L45.0529412,36.9666667 C45.6617647,37.5757576 46.6764706,37.5757576 47.2852941,36.9666667 L65.3470588,18.8969697 L65.3470588,25.5969697 C65.3470588,26.4090909 65.9558824,27.2212121 66.9705882,27.2212121 C67.9852941,27.2212121 68.5941176,26.6121212 68.5941176,25.5969697 L68.5941176,15.2424242 L68.5941176,15.2424242 Z" id="Shape"></path>
            </g>
        </g>
    </g>
</svg>