<?xml version="1.0" encoding="UTF-8" standalone="no"?>
<svg width="68px" height="71px" viewBox="0 0 68 71" version="1.1" xmlns="http://www.w3.org/2000/svg" xmlns:xlink="http://www.w3.org/1999/xlink">
    <!-- Generator: Sketch 41.2 (35397) - http://www.bohemiancoding.com/sketch -->
    <title>best-in-class-support-8e853ed1b9f04a20e49c5b311b2da84a</title>
    <desc>Created with Sketch.</desc>
    <defs></defs>
    <g id="Page-1" stroke="none" stroke-width="1" fill="none" fill-rule="evenodd">
        <g id="best-in-class-support-8e853ed1b9f04a20e49c5b311b2da84a" fill="#000000">
            <path d="M56.3162051,19.2134634 L55.9430769,19.2134634 C54.4505641,8.36253659 45.2234872,0 34.0366154,0 C22.8497436,0 13.6261538,8.36253659 12.133641,19.2169756 L11.6262564,19.2169756 C5.20635897,19.2169756 0,24.4571707 0,30.923122 C0,37.3890732 5.20635897,42.6275122 11.6262564,42.6310244 L13.0542564,42.6275122 C13.2390769,42.696 13.434359,42.7469268 13.6418462,42.7469268 C14.6060513,42.7469268 15.3854359,41.9619512 15.3854359,40.9908293 L15.3854359,22.2971707 C15.4028718,11.9221463 23.7389744,3.5315122 34.0366154,3.51219512 C44.3342564,3.5315122 52.6721026,11.9221463 52.6912821,22.2971707 L52.6912821,49.6554146 C52.7697436,50.4474146 51.8055385,52.0033171 51.0627692,52.2860488 L39.877641,57.8388293 C38.3990769,55.9843902 36.1568205,54.774439 33.6129231,54.7726829 C29.1580513,54.7761951 25.5505641,58.4060488 25.5453333,62.892878 C25.5505641,67.3779512 29.1580513,71.0165854 33.6129231,71.0165854 C38.0695385,71.0165854 41.6770256,67.3779512 41.6770256,62.892878 C41.6770256,62.2325854 41.5758974,61.6003902 41.4294359,60.984 L52.6006154,55.4382439 C54.7330256,54.2950244 56.0982564,52.091122 56.1767179,49.6554146 L56.1767179,42.6275122 L56.3127179,42.6275122 C62.7361026,42.6275122 67.9372308,37.3890732 67.9424615,30.923122 C67.9407179,24.4536585 62.7378462,19.2169756 56.3162051,19.2134634 Z M3.48717949,30.923122 C3.49764103,26.3959024 7.13128205,22.7361951 11.6262564,22.7291707 L11.8982564,22.7291707 L11.8982564,39.1188293 L11.6262564,39.1188293 C7.13128205,39.1100488 3.49764103,35.4485854 3.48717949,30.923122 Z M33.6146667,67.500878 C31.0882051,67.4973659 29.0412308,65.4357073 29.0377436,62.892878 C29.0412308,60.3500488 31.0847179,58.2901463 33.6146667,58.2866341 C36.1446154,58.2901463 38.186359,60.3500488 38.1933333,62.892878 C38.186359,65.4374634 36.1428718,67.499122 33.6146667,67.500878 Z M56.3162051,39.1170732 L56.1802051,39.1170732 L56.1802051,22.7291707 L56.3162051,22.7291707 C60.8146667,22.7361951 64.4483077,26.3959024 64.4552821,30.923122 C64.4483077,35.4485854 60.8146667,39.1100488 56.3162051,39.1170732 Z" id="Shape"></path>
        </g>
    </g>
</svg>