<?xml version="1.0" encoding="UTF-8" standalone="no"?>
<svg width="68px" height="69px" viewBox="0 0 68 69" version="1.1" xmlns="http://www.w3.org/2000/svg" xmlns:xlink="http://www.w3.org/1999/xlink">
    <!-- Generator: Sketch 41.2 (35397) - http://www.bohemiancoding.com/sketch -->
    <title>Group</title>
    <desc>Created with Sketch.</desc>
    <defs>
        <rect id="path-1" x="9.82222222" y="32.9835165" width="50.6222222" height="3.79120879"></rect>
        <mask id="mask-2" maskContentUnits="userSpaceOnUse" maskUnits="objectBoundingBox" x="0" y="0" width="50.6222222" height="3.79120879" fill="white">
            <use xlink:href="#path-1"></use>
        </mask>
        <rect id="path-3" x="28.7111111" y="47.010989" width="12.0888889" height="20.4725275" rx="3"></rect>
        <mask id="mask-4" maskContentUnits="userSpaceOnUse" maskUnits="objectBoundingBox" x="0" y="0" width="12.0888889" height="20.4725275" fill="white">
            <use xlink:href="#path-3"></use>
        </mask>
    </defs>
    <g id="Page-1" stroke="none" stroke-width="1" fill="none" fill-rule="evenodd">
        <g id="Group">
            <g id="house_success-a3123abd79259d89cc29749a37fea27b" fill="#000000">
                <path d="M1.88888889,36.7747253 L7.55555556,36.7747253 L7.55555556,67.1043956 C7.55555556,68.1659341 8.38666667,69 9.44444444,69 L58.5555556,69 C59.6133333,69 60.4444444,68.1659341 60.4444444,67.1043956 L60.4444444,36.7747253 L66.1111111,36.7747253 C67.7733333,36.7747253 68.6044444,34.7274725 67.4711111,33.5142857 L35.36,1.28901099 C34.6044444,0.530769231 33.3955556,0.530769231 32.7155556,1.28901099 L0.528888889,33.5142857 C-0.604444444,34.7274725 0.226666667,36.7747253 1.88888889,36.7747253 Z M34,5.30769231 L61.5777778,32.9835165 L58.5555556,32.9835165 C57.4977778,32.9835165 56.6666667,33.8175824 56.6666667,34.8791209 L56.6666667,65.2087912 L11.3333333,65.2087912 L11.3333333,34.8791209 C11.3333333,33.8175824 10.5022222,32.9835165 9.44444444,32.9835165 L6.42222222,32.9835165 L34,5.30769231 Z" id="Shape"></path>
            </g>
            <use id="Rectangle" stroke="#000000" mask="url(#mask-2)" stroke-width="2" fill="#000000" xlink:href="#path-1"></use>
            <use id="Rectangle-2" stroke="#000000" mask="url(#mask-4)" stroke-width="2" fill="#000000" xlink:href="#path-3"></use>
            <ellipse id="Oval" stroke="#FFFFFF" fill="#FFFFFF" cx="38.5333333" cy="58.3846154" rx="0.755555556" ry="0.758241758"></ellipse>
        </g>
    </g>
</svg>