<?xml version="1.0" encoding="UTF-8" standalone="no"?>
<svg width="61px" height="40px" viewBox="0 0 61 40" version="1.1" xmlns="http://www.w3.org/2000/svg" xmlns:xlink="http://www.w3.org/1999/xlink">
    <!-- Generator: Sketch 40 (33762) - http://www.bohemiancoding.com/sketch -->
    <title>Amex</title>
    <desc>Created with Sketch.</desc>
    <defs></defs>
    <g id="Page-1" stroke="none" stroke-width="1" fill="none" fill-rule="evenodd">
        <g id="Amex">
            <g id="Group">
                <path d="M60.75,35 C60.75,37.75 58.5,40 55.75,40 L5.75,40 C3,40 0.75,37.75 0.75,35 L0.75,5 C0.75,2.25 3,0 5.75,0 L55.75,0 C58.5,0 60.75,2.25 60.75,5 L60.75,35 L60.75,35 Z" id="Shape" fill="#5EC1EC"></path>
                <path d="M59.281,1.469 C60.187,2.375 60.75,3.625 60.75,5 L60.75,20 L60.75,35 C60.75,36.375 60.188,37.625 59.281,38.531 C58.374,39.437 57.125,40 55.75,40 L30.75,40 L5.75,40 C4.375,40 3.125,39.438 2.219,38.531 L59.281,1.469 L59.281,1.469 Z" id="Shape" fill="#5BBBE6"></path>
            </g>
            <path d="M55.75,1 C57.956,1 59.75,2.794 59.75,5 L59.75,35 C59.75,37.206 57.956,39 55.75,39 L5.75,39 C3.544,39 1.75,37.206 1.75,35 L1.75,5 C1.75,2.794 3.544,1 5.75,1 L55.75,1 L55.75,1 Z M55.75,0 L5.75,0 C3,0 0.75,2.25 0.75,5 L0.75,35 C0.75,37.75 3,40 5.75,40 L55.75,40 C58.5,40 60.75,37.75 60.75,35 L60.75,5 C60.75,2.25 58.5,0 55.75,0 L55.75,0 L55.75,0 Z" id="Shape" fill="#9BCEE0"></path>
            <path d="M14.551,15.2 L16.777,15.2 L21.145,25 L18.723,25 L17.911,23.096 L13.403,23.096 L12.605,25 L10.183,25 L14.551,15.2 Z M17.113,21.192 C16.8609987,20.5946637 16.6206678,20.0300027 16.392,19.498 C16.1633322,18.9659973 15.9183346,18.3920031 15.657,17.776 L14.215,21.192 L17.113,21.192 Z M21.555,15.2 L24.537,15.2 L26.987,22.004 C27.183001,21.462664 27.3836656,20.9050029 27.589,20.331 C27.7943344,19.7569971 28.0043323,19.1783363 28.219,18.595 C28.4336677,18.0116638 28.6436656,17.4330029 28.849,16.859 C29.0543344,16.2849971 29.254999,15.7320027 29.451,15.2 L32.419,15.2 L32.419,25 L30.291,25 L30.291,18.924 L28.093,25 L25.867,25 L23.725,18.924 L23.725,25 L21.555,25 L21.555,15.2 Z M37.799,25 C37.2203304,25 36.6743359,24.9136675 36.161,24.741 C35.6476641,24.5683325 35.1996686,24.2883353 34.817,23.901 C34.4343314,23.5136647 34.1310011,23.0096698 33.907,22.389 C33.6829989,21.7683302 33.571,21.0053379 33.571,20.1 C33.571,19.1946621 33.6829989,18.4293365 33.907,17.804 C34.1310011,17.1786635 34.4343314,16.6746686 34.817,16.292 C35.1996686,15.9093314 35.6476641,15.6316675 36.161,15.459 C36.6743359,15.2863325 37.2203304,15.2 37.799,15.2 L41.467,15.2 L41.467,17.104 L38.065,17.104 C37.794332,17.104 37.5353346,17.1366663 37.288,17.202 C37.0406654,17.2673337 36.8166677,17.3793325 36.616,17.538 C36.4153323,17.6966675 36.2450007,17.9066654 36.105,18.168 C35.9649993,18.4293346 35.8670003,18.755998 35.811,19.148 L41.467,19.148 L41.467,21.052 L35.811,21.052 C35.8670003,21.444002 35.9649993,21.7706654 36.105,22.032 C36.2450007,22.2933346 36.4153323,22.5033325 36.616,22.662 C36.8166677,22.8206675 37.0406654,22.9326663 37.288,22.998 C37.5353346,23.0633337 37.794332,23.096 38.065,23.096 L41.467,23.096 L41.467,25 L37.799,25 Z M45.573,20.1 L42.101,15.2 L44.733,15.2 L46.847,18.266 L48.961,15.2 L51.593,15.2 L48.107,20.1 C48.6670028,20.8933373 49.247997,21.7123291 49.85,22.557 C50.452003,23.4016709 51.0329972,24.2159961 51.593,25 L48.961,25 L46.847,21.948 L44.733,25 L42.101,25 L45.573,20.1 Z" id="AMEX" stroke="#FFFFFF"></path>
        </g>
    </g>
</svg>